<svg viewBox="0 0 58 60">
  <path d="M.89 56.85c.04239663.6397142.48667716 1.1817636 1.1056193 1.3489231C2.61456144 58.3660827 3.27131872 58.1213939 3.63 57.59c1.92850194-2.9423123 4.39907637-5.4909406 7.28-7.51.1976273 2.2887515 1.134833 4.4509938 2.67 6.16.3593986.4240323.9238182.6145544 1.4666785.4950832.5428604-.1194712.9751464-.5293455 1.1233215-1.0650832.7565079-2.8630511 2.4586413-5.3862965 4.83-7.16 1 .84 3.15 3.44 4 10.16.0536577.5019243.3577926.9425506.8080673 1.1707167.4502748.2281662.985452.2128415 1.4219327-.0407167 1.92-1.12 6.28-4 7.51-8.25a28.89000417 28.89000417 0 013 4.34c.2799319.5044922.8244037.8037173 1.4003459.7695874S40.2216097 56.2640224 40.44 55.73c.8267089-1.9790114 1.3622741-4.0673785 1.59-6.2a41.30000743 41.30000743 0 005.44.72c.6438368.037904 1.2398314-.3399943 1.480142-.9385036.2403105-.5985093.071136-1.2836346-.420142-1.7014964C45.33 45 39.69 37 40 25.32c5.52 0 7.16 1.68 9 1.68 1.1930193-.0875188 2.3098626-.619179 3.13-1.49.6380245 1.0035243.9425284 2.1830392.87 3.37-.0584006.4725615.2245005.9207594.6762222 1.0713334.4517218.1505739.9469614-.0382438 1.1837778-.4513334 4.58-8 1.53-12.52-1.16-15.21-1.65-1.64-4.47-2.46-7-2.88C45.83 8 42.33 0 29 0 14.34 0 5.27 10.72 3.6 12.86c-.32824605.4131139-.36174004.9878497-.08370332 1.4362961.27803673.4484463.80771844.6740132 1.32370332.5637039l.83-.16c-.99408089 1.0102195-1.81204976 2.1797122-2.42 3.46-.18596286.4375379-.10762467.9426899.2021221 1.303354.30974676.360664.79727322.5143955 1.2578779.396646l1.52-.38C4.71 23.2-.42 37.42.89 56.85zM32.93 24c-.3 0-1.4-.12-1.79-.63C32 22.93 34.8 22 43 22c3.47 0 6.08.69 7.79 2-.460703.5332162-1.0944053.8872398-1.79 1-1.63 0-5-3-16.07-1zm21.54 1.7c-.3449602-.901618-.8726814-1.7221394-1.55-2.41v-.05C50.8 21.09 47.49 20 43 20c-3.4654893-.091578-6.9310444.1799016-10.34.81 2.2997436-1.6866361 4.909535-2.9031795 7.68-3.58.9498847-.273449 1.5575379-1.1998013 1.43-2.18-.0694293-.729636.1699393-1.4549957.66-2 3.57.11 8 .87 9.86 2.7 2.18 2.14 4.03 5.02 2.18 9.95zm-46-6.34c.24393363-.523735.16310938-1.1412773-.20739256-1.5845946C7.89210551 17.332088 7.29872063 17.1429177 6.74 17.29l-.78.19A17.66000003 17.66000003 0 018.22 15c.52235797-.4493395.67141091-1.196758.36137494-1.8120966S7.58196259 12.2475857 6.91 12.4l-.35.07C9.77 9 17.59 2 29 2c11 0 14.47 5.9 15.54 9.14-.8-.08-1.51-.11-2-.13-.5987658-.0199194-1.1749272.2296282-1.57.68-.8800189.9886003-1.2981405 2.3047744-1.15 3.62C29.3 18.39 29 22.54 29 23c0 2.37 2.62 3 4 3 .32 0 2.14-.44 5-.62-.28 12.56 5.68 20.17 8.15 22.76-4.27-.43-4.64-1.11-5.55-.41-1.12.86 0 1.62-1.7 6.27a32.87000428 32.87000428 0 00-3.35-4.53c-.3866713-.4320925-.9877516-.6026252-1.5437261-.4379713-.5559745.164654-.9672556.6350015-1.0562739 1.2079713-.57 3.51-4.25 6.25-6.11 7.43-1-7.42-3.77-10.15-4.93-11-.5110735-.3549804-1.1889265-.3549804-1.7 0-2.6703085 1.8317555-4.6574414 4.497679-5.65 7.58-1.0899542-1.43662-1.6673297-3.1969109-1.64-5 .024678-.5431525-.2484606-1.0566246-.712658-1.3397226-.4641973-.2830979-1.0457452-.2908696-1.517342-.0202774-3.09623399 1.9212104-5.77848524 4.4402829-7.89 7.41C1.72 34.31 8.17 20 8.45 19.36z"/>
  <path d="M22.55 13.89c.4916536.2469243 1.0904244.050313 1.34-.44.6240963-1.1459101 1.5932905-2.0661198 2.77-2.63-.8865053 1.3464463-.8781065 3.093465.0213036 4.4313255.89941 1.3378605 2.5140283 2.0050582 4.0954909 1.6923516C32.358257 16.6309706 33.5974436 15.399483 33.92 13.82c3.62 1.13 6.12-1.64 4.63-2.63-.4588827-.3012473-1.0748175-.176275-1.38.28-.3019925.3329101-.7137907.5459092-1.16.6-.8.13-2.21-.09-4.39-1.83-1.3440526-1.24715256-3.193658-1.79463575-5-1.48-2.87.63-4.43 3.68-4.49 3.81-.2367501.481427-.051418 1.0638992.42 1.32zm9.44-1c.0301609.5474885-.1657791 1.0833496-.5419899 1.4822465S30.5483153 14.9980886 30 15c-.9758003-.0020142-1.8077001-.7079169-1.9685223-1.6703755C27.8706556 12.3671659 28.4278647 11.42915 29.35 11.11c1.01.53 1.24.96 2.65 1.8zM45 18c1.0252362-.1040098 1.9828228-.5598352 2.71-1.29.3921221-.3893608.3943607-1.0228778.005-1.415-.3893608-.3921221-1.0228778-.3943607-1.415-.005-.3520436.3620528-.8051101.6094968-1.3.71-.5522847 0-1 .4477153-1 1s.4477153 1 1 1z"/>
</svg>