<svg viewBox="0 0 493.051 493.051">
  <path d="M430.57 145.344c-62.969-62.969-165.055-62.969-227.999.001-52.041 52.016-52.041 136.399.007 188.421 43.294 43.294 113.487 43.294 156.763-.008 36.295-36.295 36.295-95.157-.005-131.456-30.687-30.687-80.477-30.687-111.187-.007-8.335 8.327-8.342 21.835-.014 30.17 8.327 8.335 21.835 8.342 30.17.014 14.048-14.035 36.834-14.035 50.861-.007 19.637 19.637 19.637 51.484 0 71.121-26.617 26.633-69.789 26.633-96.422 0-35.38-35.362-35.38-92.718-.004-128.077 46.289-46.307 121.355-46.307 167.658-.004 59.936 59.955 59.936 157.15-.002 217.107-77.021 77.021-201.903 77.021-278.926-.002-98.357-98.357-98.357-257.841 0-356.198 8.331-8.331 8.331-21.839 0-30.17-8.331-8.331-21.839-8.331-30.17 0-115.019 115.019-115.019 301.519 0 416.538 93.686 93.686 245.583 93.686 339.268 0 76.597-76.622 76.597-200.824.002-277.443z"/>
</svg>